<mxfile host="app.diagrams.net" modified="2023-07-11T03:05:20.884Z" agent="Mozilla/5.0 (Windows NT 10.0; Win64; x64) AppleWebKit/537.36 (KHTML, like Gecko) Chrome/114.0.0.0 Safari/537.36" etag="yHIHolivy6GVOInoAQDz" version="21.6.1" type="github">
  <diagram name="페이지-1" id="RZx3rl7_o7qI7-PuLoBj">
    <mxGraphModel dx="2261" dy="804" grid="1" gridSize="10" guides="1" tooltips="1" connect="1" arrows="1" fold="1" page="1" pageScale="1" pageWidth="827" pageHeight="1169" math="0" shadow="0">
      <root>
        <mxCell id="0" />
        <mxCell id="1" parent="0" />
        <mxCell id="JNqYoAvDBB8v88EqnV_e-1" value="교수" style="whiteSpace=wrap;html=1;align=center;fontSize=18;fillColor=#D4D4D4;strokeWidth=2;fontStyle=1" parent="1" vertex="1">
          <mxGeometry x="-60" y="140" width="100" height="40" as="geometry" />
        </mxCell>
        <mxCell id="JNqYoAvDBB8v88EqnV_e-2" value="교수코드" style="ellipse;whiteSpace=wrap;html=1;align=center;fontStyle=4;fontSize=16;strokeWidth=2;" parent="1" vertex="1">
          <mxGeometry x="-280" y="60" width="100" height="40" as="geometry" />
        </mxCell>
        <mxCell id="JNqYoAvDBB8v88EqnV_e-3" value="교수이름" style="ellipse;whiteSpace=wrap;html=1;align=center;fontSize=16;strokeWidth=2;" parent="1" vertex="1">
          <mxGeometry x="-280" y="160" width="100" height="40" as="geometry" />
        </mxCell>
        <mxCell id="JNqYoAvDBB8v88EqnV_e-4" value="강의" style="shape=rhombus;perimeter=rhombusPerimeter;whiteSpace=wrap;html=1;align=center;fontSize=18;fillColor=#d5e8d4;strokeColor=#000000;strokeWidth=2;" parent="1" vertex="1">
          <mxGeometry x="-70" y="230" width="120" height="60" as="geometry" />
        </mxCell>
        <mxCell id="JNqYoAvDBB8v88EqnV_e-5" value="과목" style="whiteSpace=wrap;html=1;align=center;fontSize=18;fillColor=#D4D4D4;strokeWidth=2;fontStyle=1" parent="1" vertex="1">
          <mxGeometry x="-60" y="340" width="100" height="40" as="geometry" />
        </mxCell>
        <mxCell id="JNqYoAvDBB8v88EqnV_e-6" value="과목코드" style="ellipse;whiteSpace=wrap;html=1;align=center;fontStyle=4;fontSize=16;strokeWidth=2;" parent="1" vertex="1">
          <mxGeometry x="-280" y="260" width="100" height="40" as="geometry" />
        </mxCell>
        <mxCell id="JNqYoAvDBB8v88EqnV_e-8" value="과목명" style="ellipse;whiteSpace=wrap;html=1;align=center;fontSize=16;strokeWidth=2;" parent="1" vertex="1">
          <mxGeometry x="-280" y="340" width="100" height="40" as="geometry" />
        </mxCell>
        <mxCell id="JNqYoAvDBB8v88EqnV_e-9" value="종료일" style="ellipse;whiteSpace=wrap;html=1;align=center;fontSize=16;strokeWidth=2;" parent="1" vertex="1">
          <mxGeometry x="-280" y="420" width="100" height="40" as="geometry" />
        </mxCell>
        <mxCell id="JNqYoAvDBB8v88EqnV_e-10" value="시작일" style="ellipse;whiteSpace=wrap;html=1;align=center;fontSize=16;strokeWidth=2;" parent="1" vertex="1">
          <mxGeometry x="-200" y="500" width="100" height="40" as="geometry" />
        </mxCell>
        <mxCell id="JNqYoAvDBB8v88EqnV_e-11" value="수강" style="shape=rhombus;perimeter=rhombusPerimeter;whiteSpace=wrap;html=1;align=center;fontSize=18;fillColor=#d5e8d4;strokeColor=#000000;strokeWidth=2;" parent="1" vertex="1">
          <mxGeometry x="114" y="330" width="120" height="60" as="geometry" />
        </mxCell>
        <mxCell id="JNqYoAvDBB8v88EqnV_e-12" value="소속" style="shape=rhombus;perimeter=rhombusPerimeter;whiteSpace=wrap;html=1;align=center;fontSize=18;fillColor=#d5e8d4;strokeColor=#000000;strokeWidth=2;" parent="1" vertex="1">
          <mxGeometry x="114" y="130" width="120" height="60" as="geometry" />
        </mxCell>
        <mxCell id="JNqYoAvDBB8v88EqnV_e-13" value="소속" style="shape=rhombus;perimeter=rhombusPerimeter;whiteSpace=wrap;html=1;align=center;fontSize=18;fillColor=#d5e8d4;strokeColor=#000000;strokeWidth=2;" parent="1" vertex="1">
          <mxGeometry x="304" y="230" width="120" height="60" as="geometry" />
        </mxCell>
        <mxCell id="JNqYoAvDBB8v88EqnV_e-14" value="학과" style="whiteSpace=wrap;html=1;align=center;fontSize=18;fillColor=#D4D4D4;strokeWidth=2;fontStyle=1" parent="1" vertex="1">
          <mxGeometry x="314" y="140" width="100" height="40" as="geometry" />
        </mxCell>
        <mxCell id="JNqYoAvDBB8v88EqnV_e-15" value="학생" style="whiteSpace=wrap;html=1;align=center;fontSize=18;fillColor=#D4D4D4;strokeWidth=2;fontStyle=1" parent="1" vertex="1">
          <mxGeometry x="314" y="340" width="100" height="40" as="geometry" />
        </mxCell>
        <mxCell id="JNqYoAvDBB8v88EqnV_e-16" value="학과코드" style="ellipse;whiteSpace=wrap;html=1;align=center;fontStyle=4;fontSize=16;strokeWidth=2;" parent="1" vertex="1">
          <mxGeometry x="500" y="60" width="100" height="40" as="geometry" />
        </mxCell>
        <mxCell id="JNqYoAvDBB8v88EqnV_e-17" value="학과명" style="ellipse;whiteSpace=wrap;html=1;align=center;fontSize=16;strokeWidth=2;" parent="1" vertex="1">
          <mxGeometry x="500" y="160" width="100" height="40" as="geometry" />
        </mxCell>
        <mxCell id="JNqYoAvDBB8v88EqnV_e-18" value="이름" style="ellipse;whiteSpace=wrap;html=1;align=center;fontSize=16;strokeWidth=2;" parent="1" vertex="1">
          <mxGeometry x="500" y="340" width="100" height="40" as="geometry" />
        </mxCell>
        <mxCell id="JNqYoAvDBB8v88EqnV_e-19" value="학번" style="ellipse;whiteSpace=wrap;html=1;align=center;fontStyle=4;fontSize=16;strokeWidth=2;" parent="1" vertex="1">
          <mxGeometry x="500" y="260" width="100" height="40" as="geometry" />
        </mxCell>
        <mxCell id="JNqYoAvDBB8v88EqnV_e-20" value="키" style="ellipse;whiteSpace=wrap;html=1;align=center;fontSize=16;strokeWidth=2;" parent="1" vertex="1">
          <mxGeometry x="500" y="420" width="100" height="40" as="geometry" />
        </mxCell>
        <mxCell id="JNqYoAvDBB8v88EqnV_e-28" value="" style="endArrow=none;html=1;rounded=0;exitX=1;exitY=0.5;exitDx=0;exitDy=0;entryX=0;entryY=0.5;entryDx=0;entryDy=0;strokeWidth=2;" parent="1" source="JNqYoAvDBB8v88EqnV_e-5" target="JNqYoAvDBB8v88EqnV_e-11" edge="1">
          <mxGeometry relative="1" as="geometry">
            <mxPoint x="40" y="410" as="sourcePoint" />
            <mxPoint x="200" y="410" as="targetPoint" />
          </mxGeometry>
        </mxCell>
        <mxCell id="JNqYoAvDBB8v88EqnV_e-29" value="M" style="resizable=0;html=1;whiteSpace=wrap;align=right;verticalAlign=bottom;fontSize=16;" parent="JNqYoAvDBB8v88EqnV_e-28" connectable="0" vertex="1">
          <mxGeometry x="1" relative="1" as="geometry">
            <mxPoint y="-10" as="offset" />
          </mxGeometry>
        </mxCell>
        <mxCell id="JNqYoAvDBB8v88EqnV_e-30" value="" style="endArrow=none;html=1;rounded=0;exitX=0;exitY=0.5;exitDx=0;exitDy=0;entryX=1;entryY=0.5;entryDx=0;entryDy=0;strokeWidth=2;" parent="1" source="JNqYoAvDBB8v88EqnV_e-15" target="JNqYoAvDBB8v88EqnV_e-11" edge="1">
          <mxGeometry relative="1" as="geometry">
            <mxPoint x="200" y="459.5" as="sourcePoint" />
            <mxPoint x="274" y="459.5" as="targetPoint" />
          </mxGeometry>
        </mxCell>
        <mxCell id="JNqYoAvDBB8v88EqnV_e-31" value="N" style="resizable=0;html=1;whiteSpace=wrap;align=right;verticalAlign=bottom;fontSize=16;" parent="JNqYoAvDBB8v88EqnV_e-30" connectable="0" vertex="1">
          <mxGeometry x="1" relative="1" as="geometry">
            <mxPoint x="16" y="-10" as="offset" />
          </mxGeometry>
        </mxCell>
        <mxCell id="JNqYoAvDBB8v88EqnV_e-32" value="" style="endArrow=none;html=1;rounded=0;exitX=0.5;exitY=1;exitDx=0;exitDy=0;entryX=0.5;entryY=0;entryDx=0;entryDy=0;strokeWidth=2;" parent="1" source="JNqYoAvDBB8v88EqnV_e-1" target="JNqYoAvDBB8v88EqnV_e-4" edge="1">
          <mxGeometry relative="1" as="geometry">
            <mxPoint x="30" y="290" as="sourcePoint" />
            <mxPoint x="190" y="290" as="targetPoint" />
          </mxGeometry>
        </mxCell>
        <mxCell id="JNqYoAvDBB8v88EqnV_e-33" value="N" style="resizable=0;html=1;whiteSpace=wrap;align=right;verticalAlign=bottom;fontSize=16;" parent="JNqYoAvDBB8v88EqnV_e-32" connectable="0" vertex="1">
          <mxGeometry x="1" relative="1" as="geometry">
            <mxPoint x="20" as="offset" />
          </mxGeometry>
        </mxCell>
        <mxCell id="JNqYoAvDBB8v88EqnV_e-34" value="" style="endArrow=none;html=1;rounded=0;exitX=0.5;exitY=0;exitDx=0;exitDy=0;strokeWidth=2;" parent="1" source="JNqYoAvDBB8v88EqnV_e-5" target="JNqYoAvDBB8v88EqnV_e-4" edge="1">
          <mxGeometry relative="1" as="geometry">
            <mxPoint x="30" y="360" as="sourcePoint" />
            <mxPoint x="190" y="360" as="targetPoint" />
          </mxGeometry>
        </mxCell>
        <mxCell id="JNqYoAvDBB8v88EqnV_e-35" value="1" style="resizable=0;html=1;whiteSpace=wrap;align=right;verticalAlign=bottom;fontSize=16;" parent="JNqYoAvDBB8v88EqnV_e-34" connectable="0" vertex="1">
          <mxGeometry x="1" relative="1" as="geometry">
            <mxPoint x="20" y="20" as="offset" />
          </mxGeometry>
        </mxCell>
        <mxCell id="JNqYoAvDBB8v88EqnV_e-37" value="" style="endArrow=none;html=1;rounded=0;entryX=0;entryY=0.5;entryDx=0;entryDy=0;exitX=1;exitY=0.5;exitDx=0;exitDy=0;strokeWidth=2;" parent="1" source="JNqYoAvDBB8v88EqnV_e-1" target="JNqYoAvDBB8v88EqnV_e-12" edge="1">
          <mxGeometry relative="1" as="geometry">
            <mxPoint x="90" y="240" as="sourcePoint" />
            <mxPoint y="300" as="targetPoint" />
          </mxGeometry>
        </mxCell>
        <mxCell id="JNqYoAvDBB8v88EqnV_e-38" value="N" style="resizable=0;html=1;whiteSpace=wrap;align=right;verticalAlign=bottom;fontSize=16;" parent="JNqYoAvDBB8v88EqnV_e-37" connectable="0" vertex="1">
          <mxGeometry x="1" relative="1" as="geometry">
            <mxPoint x="6" y="-10" as="offset" />
          </mxGeometry>
        </mxCell>
        <mxCell id="JNqYoAvDBB8v88EqnV_e-39" value="" style="endArrow=none;html=1;rounded=0;exitX=0;exitY=0.5;exitDx=0;exitDy=0;entryX=1;entryY=0.5;entryDx=0;entryDy=0;strokeWidth=2;" parent="1" source="JNqYoAvDBB8v88EqnV_e-14" target="JNqYoAvDBB8v88EqnV_e-12" edge="1">
          <mxGeometry relative="1" as="geometry">
            <mxPoint y="410" as="sourcePoint" />
            <mxPoint x="200" y="290" as="targetPoint" />
          </mxGeometry>
        </mxCell>
        <mxCell id="JNqYoAvDBB8v88EqnV_e-40" value="1" style="resizable=0;html=1;whiteSpace=wrap;align=right;verticalAlign=bottom;fontSize=16;" parent="JNqYoAvDBB8v88EqnV_e-39" connectable="0" vertex="1">
          <mxGeometry x="1" relative="1" as="geometry">
            <mxPoint x="20" y="-10" as="offset" />
          </mxGeometry>
        </mxCell>
        <mxCell id="JNqYoAvDBB8v88EqnV_e-41" value="" style="endArrow=none;html=1;rounded=0;exitX=0.5;exitY=1;exitDx=0;exitDy=0;entryX=0.5;entryY=0;entryDx=0;entryDy=0;strokeWidth=2;" parent="1" source="JNqYoAvDBB8v88EqnV_e-14" target="JNqYoAvDBB8v88EqnV_e-13" edge="1">
          <mxGeometry relative="1" as="geometry">
            <mxPoint x="426" y="270" as="sourcePoint" />
            <mxPoint x="330" y="270" as="targetPoint" />
          </mxGeometry>
        </mxCell>
        <mxCell id="JNqYoAvDBB8v88EqnV_e-42" value="1" style="resizable=0;html=1;whiteSpace=wrap;align=right;verticalAlign=bottom;fontSize=16;" parent="JNqYoAvDBB8v88EqnV_e-41" connectable="0" vertex="1">
          <mxGeometry x="1" relative="1" as="geometry">
            <mxPoint x="20" y="-10" as="offset" />
          </mxGeometry>
        </mxCell>
        <mxCell id="JNqYoAvDBB8v88EqnV_e-43" value="" style="endArrow=none;html=1;rounded=0;entryX=0.5;entryY=1;entryDx=0;entryDy=0;exitX=0.5;exitY=0;exitDx=0;exitDy=0;strokeWidth=2;" parent="1" source="JNqYoAvDBB8v88EqnV_e-15" target="JNqYoAvDBB8v88EqnV_e-13" edge="1">
          <mxGeometry relative="1" as="geometry">
            <mxPoint x="356" y="369.5" as="sourcePoint" />
            <mxPoint x="430" y="369.5" as="targetPoint" />
          </mxGeometry>
        </mxCell>
        <mxCell id="JNqYoAvDBB8v88EqnV_e-44" value="N" style="resizable=0;html=1;whiteSpace=wrap;align=right;verticalAlign=bottom;fontSize=16;" parent="JNqYoAvDBB8v88EqnV_e-43" connectable="0" vertex="1">
          <mxGeometry x="1" relative="1" as="geometry">
            <mxPoint x="20" y="20" as="offset" />
          </mxGeometry>
        </mxCell>
        <mxCell id="JNqYoAvDBB8v88EqnV_e-45" value="" style="endArrow=none;html=1;rounded=0;strokeWidth=2;exitX=1;exitY=0.5;exitDx=0;exitDy=0;entryX=0;entryY=0.5;entryDx=0;entryDy=0;" parent="1" source="JNqYoAvDBB8v88EqnV_e-2" target="JNqYoAvDBB8v88EqnV_e-1" edge="1">
          <mxGeometry relative="1" as="geometry">
            <mxPoint x="140" y="290" as="sourcePoint" />
            <mxPoint x="250" y="300" as="targetPoint" />
          </mxGeometry>
        </mxCell>
        <mxCell id="JNqYoAvDBB8v88EqnV_e-49" value="" style="endArrow=none;html=1;rounded=0;strokeWidth=2;exitX=1;exitY=0.5;exitDx=0;exitDy=0;entryX=0;entryY=0.5;entryDx=0;entryDy=0;" parent="1" source="JNqYoAvDBB8v88EqnV_e-3" target="JNqYoAvDBB8v88EqnV_e-1" edge="1">
          <mxGeometry relative="1" as="geometry">
            <mxPoint x="-100" y="150" as="sourcePoint" />
            <mxPoint x="-80" y="190" as="targetPoint" />
          </mxGeometry>
        </mxCell>
        <mxCell id="JNqYoAvDBB8v88EqnV_e-50" value="" style="endArrow=none;html=1;rounded=0;strokeWidth=2;exitX=1;exitY=0.5;exitDx=0;exitDy=0;entryX=0;entryY=0.5;entryDx=0;entryDy=0;" parent="1" source="JNqYoAvDBB8v88EqnV_e-6" edge="1" target="JNqYoAvDBB8v88EqnV_e-5">
          <mxGeometry relative="1" as="geometry">
            <mxPoint x="-80" y="410" as="sourcePoint" />
            <mxPoint x="-60" y="370" as="targetPoint" />
          </mxGeometry>
        </mxCell>
        <mxCell id="JNqYoAvDBB8v88EqnV_e-51" value="" style="endArrow=none;html=1;rounded=0;strokeWidth=2;exitX=1;exitY=0.5;exitDx=0;exitDy=0;entryX=0;entryY=0.5;entryDx=0;entryDy=0;" parent="1" source="JNqYoAvDBB8v88EqnV_e-8" target="JNqYoAvDBB8v88EqnV_e-5" edge="1">
          <mxGeometry relative="1" as="geometry">
            <mxPoint x="-80" y="350" as="sourcePoint" />
            <mxPoint x="-60" y="400" as="targetPoint" />
          </mxGeometry>
        </mxCell>
        <mxCell id="JNqYoAvDBB8v88EqnV_e-52" value="" style="endArrow=none;html=1;rounded=0;strokeWidth=2;exitX=1;exitY=0;exitDx=0;exitDy=0;entryX=0;entryY=0.5;entryDx=0;entryDy=0;" parent="1" source="JNqYoAvDBB8v88EqnV_e-9" target="JNqYoAvDBB8v88EqnV_e-5" edge="1">
          <mxGeometry relative="1" as="geometry">
            <mxPoint x="-70" y="420" as="sourcePoint" />
            <mxPoint x="-50" y="400" as="targetPoint" />
          </mxGeometry>
        </mxCell>
        <mxCell id="JNqYoAvDBB8v88EqnV_e-53" value="" style="endArrow=none;html=1;rounded=0;strokeWidth=2;exitX=0.5;exitY=0;exitDx=0;exitDy=0;entryX=0;entryY=0.5;entryDx=0;entryDy=0;" parent="1" source="JNqYoAvDBB8v88EqnV_e-10" target="JNqYoAvDBB8v88EqnV_e-5" edge="1">
          <mxGeometry relative="1" as="geometry">
            <mxPoint x="70" y="485" as="sourcePoint" />
            <mxPoint x="60" y="415" as="targetPoint" />
          </mxGeometry>
        </mxCell>
        <mxCell id="JNqYoAvDBB8v88EqnV_e-54" value="" style="endArrow=none;html=1;rounded=0;strokeWidth=2;exitX=0;exitY=0.5;exitDx=0;exitDy=0;entryX=1;entryY=0.5;entryDx=0;entryDy=0;" parent="1" source="JNqYoAvDBB8v88EqnV_e-20" target="JNqYoAvDBB8v88EqnV_e-15" edge="1">
          <mxGeometry relative="1" as="geometry">
            <mxPoint x="410" y="500" as="sourcePoint" />
            <mxPoint x="410" y="400" as="targetPoint" />
          </mxGeometry>
        </mxCell>
        <mxCell id="JNqYoAvDBB8v88EqnV_e-55" value="" style="endArrow=none;html=1;rounded=0;strokeWidth=2;exitX=0;exitY=0.5;exitDx=0;exitDy=0;entryX=1;entryY=0.5;entryDx=0;entryDy=0;" parent="1" source="JNqYoAvDBB8v88EqnV_e-18" target="JNqYoAvDBB8v88EqnV_e-15" edge="1">
          <mxGeometry relative="1" as="geometry">
            <mxPoint x="450" y="520" as="sourcePoint" />
            <mxPoint x="410" y="400" as="targetPoint" />
          </mxGeometry>
        </mxCell>
        <mxCell id="JNqYoAvDBB8v88EqnV_e-56" value="" style="endArrow=none;html=1;rounded=0;strokeWidth=2;exitX=0;exitY=0.5;exitDx=0;exitDy=0;entryX=1;entryY=0.5;entryDx=0;entryDy=0;" parent="1" source="JNqYoAvDBB8v88EqnV_e-19" target="JNqYoAvDBB8v88EqnV_e-15" edge="1">
          <mxGeometry relative="1" as="geometry">
            <mxPoint x="470" y="370" as="sourcePoint" />
            <mxPoint x="430" y="330" as="targetPoint" />
          </mxGeometry>
        </mxCell>
        <mxCell id="JNqYoAvDBB8v88EqnV_e-57" value="" style="endArrow=none;html=1;rounded=0;strokeWidth=2;exitX=0;exitY=0.5;exitDx=0;exitDy=0;entryX=1;entryY=0.5;entryDx=0;entryDy=0;" parent="1" source="JNqYoAvDBB8v88EqnV_e-17" target="JNqYoAvDBB8v88EqnV_e-14" edge="1">
          <mxGeometry relative="1" as="geometry">
            <mxPoint x="490" y="250" as="sourcePoint" />
            <mxPoint x="450" y="290" as="targetPoint" />
          </mxGeometry>
        </mxCell>
        <mxCell id="JNqYoAvDBB8v88EqnV_e-58" value="" style="endArrow=none;html=1;rounded=0;strokeWidth=2;exitX=0;exitY=0.5;exitDx=0;exitDy=0;entryX=1;entryY=0.5;entryDx=0;entryDy=0;" parent="1" source="JNqYoAvDBB8v88EqnV_e-16" target="JNqYoAvDBB8v88EqnV_e-14" edge="1">
          <mxGeometry relative="1" as="geometry">
            <mxPoint x="470" y="230" as="sourcePoint" />
            <mxPoint x="430" y="190" as="targetPoint" />
          </mxGeometry>
        </mxCell>
      </root>
    </mxGraphModel>
  </diagram>
</mxfile>
